#!OML:ASF E:\motion texture\Top Level 1\Subject 1\Session 1\male.ASF
:FULLY-SPECIFIED
:DEGREES
583
root -35.46 17.7524 3.18998 184.334 -79.7295 -175.868
lowerback 0.466306 -7.02288 5.35452
upperback -1.88722 -9.75268 10.7769
thorax -1.18329 -5.15459 8.44751
lowerneck -12.8591 -5.11794 -5.73009
upperneck 2.83018 -6.17309 3.37593
head 3.55013 -3.0134 1.7022
rclavicle 9.78021e-014 7.31528e-014
rhumerus 12.8437 20.0347 -67.2796
rradius 88.845
rwrist 33.0941
rhand -47.8118 -39.7558
rfingers 7.12502
rthumb -20.4875 -428.695
lclavicle 9.78021e-014 7.31528e-014
lhumerus 22.7982 -40.9952 98.1664
lradius 70.0946
lwrist 43.1127
lhand -7.19199 47.4462
lfingers 7.12502
lthumb 18.6862 76.5687
rfemur -33.1981 8.37486 18.1251
rtibia 28.3187
rfoot -1.01495 -4.35853
rtoes 14.8611
lfemur -13.3702 5.12646 -22.5531
ltibia 51.1207
lfoot -3.36542 -0.596617
ltoes -20.0576
584
root -35.6294 17.7692 3.17653 183.858 -79.3634 -175.373
lowerback 0.519852 -7.03618 5.55123
upperback -1.74729 -9.79377 10.8804
thorax -1.07469 -5.18501 8.44789
lowerneck -12.9245 -5.00775 -5.62561
upperneck 2.81685 -6.03642 3.31547
head 3.54384 -2.9469 1.67265
rclavicle -3.97569e-015 -4.13472e-014
rhumerus 11.0956 20.2082 -67.6796
rradius 89.2387
rwrist 32.835
rhand -48.0695 -40.6078
rfingers 7.12502
rthumb -20.7352 -429.52
lclavicle -3.97569e-015 -4.13472e-014
lhumerus 22.1195 -41.8764 97.9582
lradius 70.2161
lwrist 43.2231
lhand -6.61873 47.0641
lfingers 7.12502
lthumb 19.2375 76.1326
rfemur -32.7577 8.74364 18.3452
rtibia 28.57
rfoot -1.31826 -4.07103
rtoes 15.3185
lfemur -14.2336 5.49481 -22.357
ltibia 51.8969
lfoot -3.23756 -0.24246
ltoes -20.0033
585
root -35.7977 17.786 3.16276 183.441 -78.9903 -174.933
lowerback 0.572347 -7.05104 5.74035
upperback -1.60778 -9.83718 10.9766
thorax -0.965689 -5.21609 8.44446
lowerneck -12.9871 -4.89346 -5.52117
upperneck 2.81045 -5.89445 3.25268
head 3.53938 -2.87791 1.64278
rclavicle 1.59028e-014 2.54444e-014
rhumerus 9.27114 20.3491 -68.1139
rradius 89.6286
rwrist 32.496
rhand -48.295 -41.454
rfingers 7.12502
rthumb -20.9518 -430.342
lclavicle 1.59028e-014 2.54444e-014
lhumerus 21.4018 -42.7687 97.7461
lradius 70.3318
lwrist 43.247
lhand -6.01982 46.6594
lfingers 7.12502
lthumb 19.8133 75.6695
rfemur -32.3008 9.10251 18.5601
rtibia 28.7847
rfoot -1.64365 -3.80878
rtoes 15.7196
lfemur -15.1103 5.8628 -22.1675
ltibia 52.5962
lfoot -3.18275 0.139316
ltoes -19.9346
586
root -35.965 17.8029 3.14875 183.079 -78.6141 -174.542
lowerback 0.617604 -7.06746 5.92526
upperback -1.46676 -9.88365 11.064
thorax -0.851591 -5.24817 8.43256
lowerneck -13.048 -4.77642 -5.41766
upperneck 2.80872 -5.74888 3.18921
head 3.53637 -2.80721 1.61314
rclavicle 7.87187e-014 -9.85972e-014
rhumerus 7.37848 20.447 -68.58
rradius 90.0082
rwrist 32.0713
rhand -48.5018 -42.3178
rfingers 7.12502
rthumb -21.1505 -431.184
lclavicle 7.87187e-014 -9.85972e-014
lhumerus 20.6466 -43.6656 97.5334
lradius 70.439
lwrist 43.1736
lhand -5.38809 46.2309
lfingers 7.12502
lthumb 20.4205 75.1772
rfemur -31.8289 9.44381 18.7717
rtibia 28.9659
rfoot -1.99642 -3.57711
rtoes 16.0531
lfemur -15.9971 6.2256 -21.9849
ltibia 53.2128
lfoot -3.19952 0.546522
ltoes -19.863
587
root -36.1314 17.8196 3.13439 182.775 -78.2296 -174.206
lowerback 0.658615 -7.08453 6.10163
upperback -1.32477 -9.93149 11.1419
thorax -0.734211 -5.28031 8.4145
lowerneck -13.1081 -4.65611 -5.31288
upperneck 2.814 -5.59914 3.12235
head 3.53561 -2.73457 1.58247
rclavicle 7.95139e-016 1.27222e-014
rhumerus 5.42263 20.4964 -69.0767
rradius 90.3704
rwrist 31.563
rhand -48.6939 -43.1967
rfingers 7.12502
rthumb -21.335 -432.042
lclavicle 7.95139e-016 1.27222e-014
lhumerus 19.8447 -44.5545 97.3302
lradius 70.5384
lwrist 43.0022
lhand -4.74547 45.7789
lfingers 7.12502
lthumb 21.038 74.6577
rfemur -31.3426 9.77035 18.9797
rtibia 29.1173
rfoot -2.38463 -3.37299
rtoes 16.2995
lfemur -16.8883 6.58743 -21.8104
ltibia 53.7403
lfoot -3.28332 0.977256
ltoes -19.7772
588
root -36.2968 17.8361 3.11971 182.525 -77.8378 -173.921
lowerback 0.695737 -7.10222 6.26989
upperback -1.18228 -9.98048 11.2103
thorax -0.614414 -5.31234 8.38989
lowerneck -13.1691 -4.53262 -5.20654
upperneck 2.82747 -5.44528 3.05197
head 3.53784 -2.66004 1.55061
rclavicle 1.145e-013 -4.45278e-014
rhumerus 3.41122 20.4897 -69.6001
rradius 90.709
rwrist 30.9685
rhand -48.8575 -44.0636
rfingers 7.12502
rthumb -21.4922 -432.891
lclavicle 1.145e-013 -4.45278e-014
lhumerus 18.9886 -45.4229 97.1489
lradius 70.6266
lwrist 42.7218
lhand -4.08771 45.307
lfingers 7.12502
lthumb 21.6697 74.1143
rfemur -30.8417 10.0831 19.1833
rtibia 29.2415
rfoot -2.80293 -3.19067
rtoes 16.4907
lfemur -17.779 6.94628 -21.6435
ltibia 54.1722
lfoot -3.42865 1.42944
ltoes -19.6639
589
root -36.4611 17.8522 3.10464 182.332 -77.4388 -173.69
lowerback 0.730311 -7.12064 6.428
upperback -1.04031 -10.0303 11.2682
thorax -0.493933 -5.34402 8.35919
lowerneck -13.2281 -4.40618 -5.10082
upperneck 2.84763 -5.28751 2.98028
head 3.54218 -2.58364 1.51876
rclavicle 2.14687e-014 4.77083e-014
rhumerus 1.3515 20.4215 -70.1464
rradius 91.0172
rwrist 30.2844
rhand -48.9919 -44.9184
rfingers 7.12502
rthumb -21.6212 -433.731
lclavicle 2.14687e-014 4.77083e-014
lhumerus 18.07 -46.2581 96.9996
lradius 70.7024
lwrist 42.3296
lhand -3.44108 44.8149
lfingers 7.12502
lthumb 22.2906 73.5492
rfemur -30.3272 10.3835 19.3795
rtibia 29.3386
rfoot -3.24401 -3.03087
rtoes 16.6072
lfemur -18.6651 7.30179 -21.4852
ltibia 54.5047
lfoot -3.63323 1.90062
ltoes -19.5272
590
root -36.6246 17.8678 3.08923 182.19 -77.0353 -173.506
lowerback 0.758912 -7.13943 6.57761
upperback -0.89984 -10.0806 11.316
thorax -0.372142 -5.37521 8.32141
lowerneck -13.2852 -4.27767 -4.99581
upperneck 2.87418 -5.1269 2.90659
head 3.54859 -2.50594 1.48662
rclavicle 4.13472e-014 6.99722e-014
rhumerus -0.749413 20.282 -70.7086
rradius 91.2887
rwrist 29.5086
rhand -49.0975 -45.7687
rfingers 7.12502
rthumb -21.7226 -434.57
lclavicle 4.13472e-014 6.99722e-014
lhumerus 17.0821 -47.0489 96.8936
lradius 70.764
lwrist 41.8251
lhand -2.78282 44.3058
lfingers 7.12502
lthumb 22.9224 72.9632
rfemur -29.802 10.6708 19.5673
rtibia 29.4071
rfoot -3.70383 -2.89268
rtoes 16.6406
lfemur -19.5452 7.6509 -21.3349
ltibia 54.7344
lfoot -3.89409 2.38799
ltoes -19.3787
591
root -36.787 17.8828 3.0734 182.09 -76.6296 -173.36
lowerback 0.78175 -7.15877 6.71894
upperback -0.761183 -10.1316 11.3538
thorax -0.249524 -5.40594 8.27667
lowerneck -13.344 -4.14808 -4.88938
upperneck 2.90982 -4.96478 2.82804
head 3.55859 -2.42767 1.45267
rclavicle 4.53229e-014 -1.20861e-013
rhumerus -2.88383 20.0672 -71.2777
rradius 91.5184
rwrist 28.635
rhand -49.1697 -46.6118
rfingers 7.12502
rthumb -21.792 -435.405
lclavicle 4.53229e-014 -1.20861e-013
lhumerus 16.0191 -47.7832 96.8401
lradius 70.81
lwrist 41.2091
lhand -2.12222 43.7841
lfingers 7.12502
lthumb 23.5562 72.3615
rfemur -29.2658 10.9467 19.7464
rtibia 29.4457
rfoot -4.17661 -2.76722
rtoes 16.6067
lfemur -20.416 7.99038 -21.1905
ltibia 54.8587
lfoot -4.2027 2.88912
ltoes -19.2034
592
root -36.9487 17.8972 3.05721 182.017 -76.2212 -173.238
lowerback 0.797592 -7.17785 6.85673
upperback -0.62388 -10.1824 11.3819
thorax -0.125795 -5.43574 8.22235
lowerneck -13.4033 -4.0178 -4.78351
upperneck 2.95329 -4.80147 2.74682
head 3.57173 -2.34892 1.41802
rclavicle -1.66979e-014 1.43125e-013
rhumerus -5.04261 19.7707 -71.8458
rradius 91.6991
rwrist 27.6613
rhand -49.1974 -47.425
rfingers 7.12502
rthumb -21.8186 -436.215
lclavicle -1.66979e-014 1.43125e-013
lhumerus 14.8747 -48.4482 96.8488
lradius 70.8389
lwrist 40.4839
lhand -1.47622 43.2561
lfingers 7.12502
lthumb 24.1757 71.7525
rfemur -28.7173 11.2122 19.9197
rtibia 29.4526
rfoot -4.65204 -2.64478
rtoes 16.5366
lfemur -21.2718 8.3195 -21.048
ltibia 54.8736
lfoot -4.55428 3.4003
ltoes -19.007
593
root -37.1096 17.9108 3.04063 181.964 -75.8119 -173.133
lowerback 0.810795 -7.1972 6.99005
upperback -0.489847 -10.2328 11.4015
thorax -0.00504754 -5.46463 8.16127
lowerneck -13.4625 -3.88675 -4.67861
upperneck 3.00393 -4.63686 2.66317
head 3.58768 -2.26965 1.38285
rclavicle -6.99722e-014 -1.20861e-013
rhumerus -7.21504 19.3903 -72.4026
rradius 91.8242
rwrist 26.5798
rhand -49.1771 -48.1978
rfingers 7.12502
rthumb -21.7991 -436.99
lclavicle -6.99722e-014 -1.20861e-013
lhumerus 13.6411 -49.0285 96.9301
lradius 70.8505
lwrist 39.6529
lhand -0.848892 42.727
lfingers 7.12502
lthumb 24.777 71.1421
rfemur -28.1569 11.4672 20.0883
rtibia 29.4275
rfoot -5.12071 -2.53215
rtoes 16.422
lfemur -22.1089 8.63622 -20.9051
ltibia 54.7779
lfoot -4.94211 3.91771
ltoes -18.791
594
root -37.2697 17.9236 3.02365 181.923 -75.4035 -173.036
lowerback 0.818222 -7.21605 7.122
upperback -0.359573 -10.2822 11.4129
thorax 0.113409 -5.49225 8.09174
lowerneck -13.5211 -3.75621 -4.57656
upperneck 3.06146 -4.4724 2.57834
head 3.60642 -2.19054 1.34782
rclavicle 7.15625e-015 -7.63333e-014
rhumerus -9.39401 18.922 -72.937
rradius 91.8894
rwrist 25.3828
rhand -49.1046 -48.9472
rfingers 7.12502
rthumb -21.7295 -437.748
lclavicle 7.15625e-015 -7.63333e-014
lhumerus 12.3164 -49.5149 97.0879
lradius 70.8454
lwrist 38.7212
lhand -0.252334 42.2033
lfingers 7.12502
lthumb 25.3487 70.5385
rfemur -27.5865 11.7109 20.2541
rtibia 29.3741
rfoot -5.58337 -2.4377
rtoes 16.261
lfemur -22.9255 8.93873 -20.759
ltibia 54.5712
lfoot -5.3573 4.43655
ltoes -18.5571
595
root -37.4291 17.9356 3.00627 181.895 -74.9973 -172.947
lowerback 0.819455 -7.23439 7.25112
upperback -0.233395 -10.3305 11.4167
thorax 0.229745 -5.51857 8.01492
lowerneck -13.5829 -3.62652 -4.47201
upperneck 3.12798 -4.30882 2.48585
head 3.62905 -2.11217 1.30967
rclavicle 5.96354e-014 -1.20861e-013
rhumerus -11.5691 18.3657 -73.4372
rradius 91.8898
rwrist 24.0624
rhand -48.971 -49.6419
rfingers 7.12502
rthumb -21.6011 -438.457
lclavicle 5.96354e-014 -1.20861e-013
lhumerus 10.9021 -49.8944 97.3223
lradius 70.8234
lwrist 37.6909
lhand 0.313618 41.6939
lfingers 7.12502
lthumb 25.8907 69.9512
rfemur -27.0104 11.9436 20.416
rtibia 29.2981
rfoot -6.04209 -2.35729
rtoes 16.0497
lfemur -23.7209 9.2251 -20.6093
ltibia 54.2546
lfoot -5.78813 4.95373
ltoes -18.3038
596
root -37.5876 17.9467 2.98847 181.868 -74.5949 -172.855
lowerback 0.812805 -7.2512 7.38013
upperback -0.109749 -10.3768 11.413
thorax 0.346058 -5.54312 7.92932
lowerneck -13.6503 -3.49948 -4.36542
upperneck 3.20123 -4.14855 2.38844
head 3.65551 -2.03563 1.26921
rclavicle 6.12257e-014 -1.24042e-013
rhumerus -13.7286 17.719 -73.8932
rradius 91.8203
rwrist 22.606
rhand -48.7799 -50.3027
rfingers 7.12502
rthumb -21.4176 -439.139
lclavicle 6.12257e-014 -1.24042e-013
lhumerus 9.40757 -50.1591 97.6253
lradius 70.7853
lwrist 36.5666
lhand 0.843226 41.2093
lfingers 7.12502
lthumb 26.3978 69.3915
rfemur -26.4326 12.1665 20.5769
rtibia 29.204
rfoot -6.49756 -2.28641
rtoes 15.7914
lfemur -24.4959 9.49441 -20.451
ltibia 53.832
lfoot -6.22609 5.46272
ltoes -18.0317
